<?xml version="1.0" encoding="UTF-8"?>
<svg width="600" height="222.86" version="1.1" xmlns="http://www.w3.org/2000/svg">
 <g fill="#003a70">
  <path d="m220.05 5.8807h77.04c17.435-0.4294 35.381 1.147 51.404 8.5352 9.3646 4.2646 17.882 10.541 24.329 18.599 8.3644 10.311 13.017 23.24 14.629 36.328 1.0411 7.6176 0.7588 15.323 0.79409 22.988 0 16.293 6e-3 32.581 0 48.868-0.0882 12.617-2.3293 25.411-7.9586 36.787-4.5762 9.3231-11.517 17.464-19.999 23.464-15.564 11.047-35.016 15.005-53.809 15.323-28.805 0.0471-86.415 0.0235-86.415 0.0235zm46.693 40.737v129.61s24.917 0.0118 37.375-6e-3c7.3352-0.0412 14.841-1.3294 21.323-4.9115 5.8291-3.1469 10.476-8.3702 12.976-14.505 2.3882-5.6645 3.0646-11.882 2.9881-17.982 0.0412-18.829 0.11764-37.658 0.14705-56.486 0.0294-8.3525-1.9529-17.052-7.2999-23.658-4.7998-6.0351-12.076-9.6703-19.552-11.094-5.8176-1.2294-11.788-0.9294-17.688-0.96469z"/>
  <path d="m402.13 5.8807h46.882v170.34l100.29 6e-3 -6e-3 40.752h-147.16z"/>
  <path d="m214.13 216.79-50.773-6e-3 -49.529-161.13-49.21 161.32h-46.022l13.452-41.14 55.623-169.96 57.407 0.022058z"/>
  <path d="m571 188.28c3.8057 0.31763 7.9586-0.84117 11.494 0.99998 2.6352 1.4294 2.6293 4.9291 1.9764 7.4764-0.29999 1.5705-1.6588 2.5058-2.8529 3.394 1.1117 2.3235 3.3176 6.9704 3.3176 6.9704h-3.7587s-1.9293-4.4116-2.8822-6.6174h-3.7116v6.6232l-3.5822-6e-3m3.6177-15.955c-6e-3 2.0882-6e-3 4.1764-6e-3 6.2702 1.7705-0.0412 3.5822 0.17058 5.3235-0.25881 1.9-0.72938 1.8352-3.5411 0.70586-4.9057-1.7914-1.4691-4.1487-0.99744-6.0236-1.1057zm12.447-7.7336c6.2058 4.3763 8.5466 13.082 6.0761 20.152-1.4706 4.3587-4.6234 8.2939-8.9525 10.047-6.0761 2.4529-13.67 1.0588-18.141-3.8469-5.0703-5.3469-6.0938-13.929-2.6176-20.394 2.047-4.1116 5.9058-7.2937 10.394-8.3585 4.488-0.97621 9.4643-0.34683 13.241 2.4001zm-13.285 0.50734c-7.494 2.1705-11.553 11.264-9.0054 18.464 1.5352 4.8938 5.9702 8.776 11.094 9.429 4.8528 0.74702 9.976-1.4882 12.799-5.4938 4.1999-5.6822 3.5528-14.411-1.594-19.3-4.2015-2.9332-9.2148-4.226-13.294-3.0996z"/>
 </g>
 <path d="m209.37 105.99-6e-3 41.752-203.49 32.24v-41.764z" fill="#009fdf"/>
</svg>
